<svg width="1608" height="339" viewBox="0 0 1608 339" fill="none" xmlns="http://www.w3.org/2000/svg">
<path d="M0 330.215V0L178.263 250.054L151.584 244.072L329.846 0H331.059V330.215H268V141.179L271.638 173.482L162.498 325.429H161.285L49.7195 173.482L60.6335 143.572V330.215H0Z" fill="black"/>
<path d="M1342.42 330.215L1098.68 119.643L1116.87 130.411L1119.29 323.036H1055.02V9.57171H1057.45L1296.34 209.375L1281.79 203.393L1280.58 5.98242H1344.85V330.215H1342.42Z" fill="black"/>
<path d="M1382.45 13.1609H1601.94V72.9824H1445.5V141.179H1583.75V201H1445.5V269.197H1608V329.018H1382.45V13.1609Z" fill="black"/>
<path d="M517.809 9.57129C562.678 9.57129 600.271 25.1249 631.8 57.4285C663.33 89.7321 679.094 128.018 679.094 173.482C679.094 218.946 663.33 257.232 631.8 288.339C600.271 319.447 563.891 335 519.022 335C471.728 335 432.922 319.447 401.393 287.143C369.863 254.839 354.099 216.554 354.099 172.286C354.099 142.375 361.375 116.054 375.927 90.9285C390.479 65.8035 409.881 46.6606 435.348 32.3035C462.026 16.7499 488.705 9.57129 517.809 9.57129Z" fill="black"/>
<path d="M1021.07 171.09C1021.07 258.43 949.522 329.019 860.997 329.019C776.11 329.019 705.775 263.215 702.137 180.662C722.752 222.537 765.196 251.251 814.915 251.251C884.037 251.251 941.033 196.215 941.033 126.822C941.033 77.7687 911.929 34.6972 869.485 15.5543C954.372 17.9472 1021.07 87.3401 1021.07 171.09Z" fill="black"/>
<circle cx="517" cy="172" r="153.103" fill="url(#paint0_linear_1075_14)"/>
<path d="M469.509 88.2937C482.147 88.2937 492.736 92.6688 501.617 101.756C510.498 110.842 514.938 121.612 514.938 134.401C514.938 147.189 510.498 157.959 501.617 166.709C492.736 175.459 482.489 179.834 469.851 179.834C456.53 179.834 445.599 175.459 436.719 166.373C427.838 157.286 423.397 146.516 423.397 134.064C423.397 125.65 425.447 118.246 429.546 111.179C433.645 104.111 439.11 98.7267 446.283 94.6881C453.797 90.313 461.312 88.2937 469.509 88.2937Z" fill="black"/>
<path d="M610.603 133.727C610.603 158.314 590.622 178.185 565.9 178.185C545.522 178.185 528.147 164.497 523.025 145.892C522.449 143.801 525.41 142.765 526.841 144.394C533.257 151.702 542.567 156.293 553.031 156.293C572.335 156.293 588.251 140.8 588.251 121.266C588.251 110.987 583.748 101.642 576.558 95.3125C574.919 93.8707 575.952 90.7865 578.063 91.3389C596.91 96.2701 610.603 113.513 610.603 133.727Z" fill="black"/>
<path fill-rule="evenodd" clip-rule="evenodd" d="M517 322.506C600.122 322.506 667.506 255.122 667.506 172C667.506 88.8777 600.122 21.4938 517 21.4938C433.878 21.4938 366.494 88.8777 366.494 172C366.494 255.122 433.878 322.506 517 322.506ZM517 339C609.232 339 684 264.232 684 172C684 79.7684 609.232 5 517 5C424.768 5 350 79.7684 350 172C350 264.232 424.768 339 517 339Z" fill="black"/>
<path d="M606.649 211.997C609.394 211.997 611.32 214.703 610.314 217.257C594.295 257.915 558.539 286.22 517 286.22C475.461 286.22 439.705 257.915 423.686 217.257C422.68 214.703 424.605 211.997 427.351 211.997H606.649Z" fill="black"/>
<circle cx="517" cy="172" r="153.103" fill="url(#paint1_linear_1075_14)"/>
<path d="M469.509 88.2937C482.147 88.2937 492.736 92.6688 501.617 101.756C510.498 110.842 514.938 121.612 514.938 134.401C514.938 147.189 510.498 157.959 501.617 166.709C492.736 175.459 482.489 179.834 469.851 179.834C456.53 179.834 445.599 175.459 436.719 166.373C427.838 157.286 423.397 146.516 423.397 134.064C423.397 125.65 425.447 118.246 429.546 111.179C433.645 104.111 439.11 98.7267 446.283 94.6881C453.797 90.313 461.312 88.2937 469.509 88.2937Z" fill="black"/>
<path d="M610.603 133.727C610.603 158.314 590.622 178.185 565.9 178.185C545.522 178.185 528.147 164.497 523.025 145.892C522.449 143.801 525.41 142.765 526.841 144.394C533.257 151.702 542.567 156.293 553.031 156.293C572.335 156.293 588.251 140.8 588.251 121.266C588.251 110.987 583.748 101.642 576.558 95.3125C574.919 93.8707 575.952 90.7865 578.063 91.3389C596.91 96.2701 610.603 113.513 610.603 133.727Z" fill="black"/>
<path fill-rule="evenodd" clip-rule="evenodd" d="M517 322.506C600.122 322.506 667.506 255.122 667.506 172C667.506 88.8777 600.122 21.4938 517 21.4938C433.878 21.4938 366.494 88.8777 366.494 172C366.494 255.122 433.878 322.506 517 322.506ZM517 339C609.232 339 684 264.232 684 172C684 79.7684 609.232 5 517 5C424.768 5 350 79.7684 350 172C350 264.232 424.768 339 517 339Z" fill="black"/>
<path d="M606.649 211.997C609.394 211.997 611.32 214.703 610.314 217.257C594.295 257.915 558.539 286.22 517 286.22C475.461 286.22 439.705 257.915 423.686 217.257C422.68 214.703 424.605 211.997 427.351 211.997H606.649Z" fill="black"/>
<defs>
<linearGradient id="paint0_linear_1075_14" x1="396.721" y1="295.154" x2="644.706" y2="67.7748" gradientUnits="userSpaceOnUse">
<stop stop-color="#D4AFFC"/>
<stop offset="1" stop-color="#FDDD68"/>
</linearGradient>
<linearGradient id="paint1_linear_1075_14" x1="396.721" y1="295.154" x2="644.706" y2="67.7748" gradientUnits="userSpaceOnUse">
<stop stop-color="#D4AFFC"/>
<stop offset="1" stop-color="#FDDD68"/>
</linearGradient>
</defs>
</svg>
